# xmcd
#
# Track frame offsets:
# 150
# 12653
# 30509
# 48566
# 73410
#
# Disc length: 1155 seconds
#
#
# Revision: 0
# Processed by: cddbd v1.5.1PL0 Copyright (c) Steve Scherf et al.
# Submitted via: FreeRIP 2.80 
#
DISCID=44048105
DTITLE=John Priest and Pride and Joy - Treat Me Right
DYEAR=1900
DGENRE=Blues
TTITLE0=Scuttle Buttin
TTITLE1=Hug Ya, Kiss Ya, Squeeze Ya
TTITLE2=Treat Me Right
TTITLE3=Turnaround
TTITLE4=Tore Down
EXTD=
EXTT0=
EXTT1=
EXTT2=
EXTT3=
EXTT4=
PLAYORDER=
